<svg width="368" height="428" viewBox="0 0 368 428" fill="none" xmlns="http://www.w3.org/2000/svg">
<g filter="url(#filter0_d_190_1319)">
<path d="M364 0H4V420H364V0Z" fill="#3A3838" fill-opacity="0.86"/>
<path d="M253.5 188.5H115.5V231.5H253.5V188.5Z" stroke="white" stroke-linejoin="round"/>
<path d="M149.952 222.266H149.84C149.231 222.266 148.719 221.767 148.675 221.129C148.63 220.46 149.119 219.878 149.764 219.834C149.789 219.832 149.816 219.832 149.842 219.832C150.459 219.832 150.975 220.321 151.021 220.948C151.033 221.197 150.993 221.551 150.737 221.843L150.731 221.85L150.725 221.857C150.529 222.091 150.262 222.232 149.952 222.266ZM136.22 222.26C135.569 222.26 135.04 221.717 135.04 221.05C135.04 220.383 135.569 219.84 136.22 219.84C136.871 219.84 137.4 220.383 137.4 221.05C137.4 221.717 136.871 222.26 136.22 222.26Z" fill="white"/>
<path d="M149.876 221.266C149.922 221.255 149.943 221.234 149.961 221.213C149.968 221.204 149.976 221.195 149.984 221.186C150.02 221.144 150.024 221.055 150.023 221.01C150.01 220.904 149.919 220.832 149.842 220.832C149.838 220.832 149.834 220.832 149.832 220.832C149.754 220.837 149.666 220.941 149.672 221.062C149.682 221.179 149.768 221.266 149.84 221.266H149.876ZM136.22 221.26C136.319 221.26 136.4 221.166 136.4 221.05C136.4 220.934 136.319 220.84 136.22 220.84C136.121 220.84 136.04 220.934 136.04 221.05C136.04 221.166 136.121 221.26 136.22 221.26ZM150 223.266C149.952 223.266 149.888 223.266 149.84 223.266C148.702 223.266 147.757 222.354 147.677 221.198C147.597 219.993 148.494 218.918 149.696 218.836C149.745 218.833 149.793 218.832 149.842 218.832C150.98 218.832 151.942 219.732 152.02 220.888C152.051 221.491 151.875 222.061 151.49 222.501C151.106 222.958 150.577 223.218 150 223.266ZM136.22 223.26C135.016 223.26 134.04 222.271 134.04 221.05C134.04 219.829 135.016 218.84 136.22 218.84C137.424 218.84 138.4 219.829 138.4 221.05C138.4 222.271 137.424 223.26 136.22 223.26ZM149.199 216.394H137.134C136.701 216.394 136.316 216.1 136.204 215.677L132.278 201.248H129.522C128.994 201.248 128.561 200.809 128.561 200.27C128.561 199.733 128.994 199.293 129.522 199.293H133C133.432 199.293 133.816 199.586 133.929 200.01L137.854 214.439H148.558L152.115 206.134H140.258C139.729 206.134 139.296 205.694 139.296 205.156C139.296 204.619 139.729 204.179 140.258 204.179H153.589C153.91 204.179 154.215 204.342 154.39 204.619C154.567 204.895 154.599 205.237 154.47 205.547L150.08 215.807C149.92 216.165 149.583 216.394 149.199 216.394Z" fill="white"/>
<path d="M149.876 221.266C149.922 221.255 149.943 221.234 149.961 221.213C149.968 221.204 149.976 221.195 149.984 221.186C150.02 221.144 150.024 221.055 150.023 221.01C150.01 220.904 149.919 220.832 149.842 220.832C149.838 220.832 149.834 220.832 149.832 220.832C149.754 220.837 149.666 220.941 149.672 221.062C149.682 221.179 149.768 221.266 149.84 221.266H149.876ZM136.22 221.26C136.319 221.26 136.4 221.166 136.4 221.05C136.4 220.934 136.319 220.84 136.22 220.84C136.121 220.84 136.04 220.934 136.04 221.05C136.04 221.166 136.121 221.26 136.22 221.26ZM150 223.266C149.952 223.266 149.888 223.266 149.84 223.266C148.702 223.266 147.757 222.354 147.677 221.198C147.597 219.993 148.494 218.918 149.696 218.836C149.745 218.833 149.793 218.832 149.842 218.832C150.98 218.832 151.942 219.732 152.02 220.888C152.051 221.491 151.875 222.061 151.49 222.501C151.106 222.958 150.577 223.218 150 223.266ZM136.22 223.26C135.016 223.26 134.04 222.271 134.04 221.05C134.04 219.829 135.016 218.84 136.22 218.84C137.424 218.84 138.4 219.829 138.4 221.05C138.4 222.271 137.424 223.26 136.22 223.26ZM149.199 216.394H137.134C136.701 216.394 136.316 216.1 136.204 215.677L132.278 201.248H129.522C128.994 201.248 128.561 200.809 128.561 200.27C128.561 199.733 128.994 199.293 129.522 199.293H133C133.432 199.293 133.816 199.586 133.929 200.01L137.854 214.439H148.558L152.115 206.134H140.258C139.729 206.134 139.296 205.694 139.296 205.156C139.296 204.619 139.729 204.179 140.258 204.179H153.589C153.91 204.179 154.215 204.342 154.39 204.619C154.567 204.895 154.599 205.237 154.47 205.547L150.08 215.807C149.92 216.165 149.583 216.394 149.199 216.394Z" fill="white"/>
<path d="M172.201 212.511L170.626 208.43C170.579 208.309 170.53 208.169 170.479 208.01C170.428 207.847 170.379 207.674 170.332 207.492C170.234 207.87 170.134 208.185 170.031 208.437L168.456 212.511H172.201ZM175.029 216.235H173.979C173.858 216.235 173.76 216.205 173.685 216.144C173.61 216.083 173.554 216.006 173.517 215.913L172.579 213.491H168.078L167.14 215.913C167.112 215.997 167.058 216.072 166.979 216.137C166.9 216.202 166.802 216.235 166.685 216.235H165.635L169.646 206.204H171.018L175.029 216.235ZM180.524 210.831C180.291 210.518 180.039 210.301 179.768 210.18C179.498 210.054 179.194 209.991 178.858 209.991C178.2 209.991 177.694 210.227 177.339 210.698C176.985 211.169 176.807 211.841 176.807 212.714C176.807 213.176 176.847 213.573 176.926 213.904C177.006 214.231 177.122 214.501 177.276 214.716C177.43 214.926 177.619 215.08 177.843 215.178C178.067 215.276 178.322 215.325 178.606 215.325C179.017 215.325 179.374 215.232 179.677 215.045C179.985 214.858 180.268 214.595 180.524 214.254V210.831ZM181.77 205.924V216.235H181.028C180.851 216.235 180.739 216.149 180.692 215.976L180.58 215.115C180.277 215.479 179.932 215.773 179.544 215.997C179.157 216.221 178.709 216.333 178.2 216.333C177.794 216.333 177.426 216.256 177.094 216.102C176.763 215.943 176.481 215.712 176.247 215.409C176.014 215.106 175.834 214.728 175.708 214.275C175.582 213.822 175.519 213.302 175.519 212.714C175.519 212.191 175.589 211.706 175.729 211.258C175.869 210.805 176.07 210.413 176.331 210.082C176.593 209.751 176.912 209.492 177.29 209.305C177.673 209.114 178.102 209.018 178.578 209.018C179.012 209.018 179.383 209.093 179.691 209.242C180.004 209.387 180.282 209.59 180.524 209.851V205.924H181.77ZM188.358 210.831C188.125 210.518 187.873 210.301 187.602 210.18C187.332 210.054 187.028 209.991 186.692 209.991C186.034 209.991 185.528 210.227 185.173 210.698C184.819 211.169 184.641 211.841 184.641 212.714C184.641 213.176 184.681 213.573 184.76 213.904C184.84 214.231 184.956 214.501 185.11 214.716C185.264 214.926 185.453 215.08 185.677 215.178C185.901 215.276 186.156 215.325 186.44 215.325C186.851 215.325 187.208 215.232 187.511 215.045C187.819 214.858 188.102 214.595 188.358 214.254V210.831ZM189.604 205.924V216.235H188.862C188.685 216.235 188.573 216.149 188.526 215.976L188.414 215.115C188.111 215.479 187.766 215.773 187.378 215.997C186.991 216.221 186.543 216.333 186.034 216.333C185.628 216.333 185.26 216.256 184.928 216.102C184.597 215.943 184.315 215.712 184.081 215.409C183.848 215.106 183.668 214.728 183.542 214.275C183.416 213.822 183.353 213.302 183.353 212.714C183.353 212.191 183.423 211.706 183.563 211.258C183.703 210.805 183.904 210.413 184.165 210.082C184.427 209.751 184.746 209.492 185.124 209.305C185.507 209.114 185.936 209.018 186.412 209.018C186.846 209.018 187.217 209.093 187.525 209.242C187.838 209.387 188.116 209.59 188.358 209.851V205.924H189.604ZM197.331 216.347C196.771 216.347 196.34 216.191 196.036 215.878C195.738 215.565 195.588 215.115 195.588 214.527V210.187H194.734C194.66 210.187 194.597 210.166 194.545 210.124C194.494 210.077 194.468 210.007 194.468 209.914V209.417L195.63 209.27L195.917 207.079C195.931 207.009 195.962 206.953 196.008 206.911C196.06 206.864 196.125 206.841 196.204 206.841H196.834V209.284H198.885V210.187H196.834V214.443C196.834 214.742 196.907 214.963 197.051 215.108C197.196 215.253 197.383 215.325 197.611 215.325C197.742 215.325 197.854 215.309 197.947 215.276C198.045 215.239 198.129 215.199 198.199 215.157C198.269 215.115 198.328 215.078 198.374 215.045C198.426 215.008 198.47 214.989 198.507 214.989C198.573 214.989 198.631 215.029 198.682 215.108L199.046 215.703C198.832 215.904 198.573 216.062 198.269 216.179C197.966 216.291 197.653 216.347 197.331 216.347ZM203.12 209.032C203.638 209.032 204.104 209.118 204.52 209.291C204.935 209.464 205.29 209.709 205.584 210.026C205.878 210.343 206.102 210.728 206.256 211.181C206.414 211.629 206.494 212.131 206.494 212.686C206.494 213.246 206.414 213.75 206.256 214.198C206.102 214.646 205.878 215.029 205.584 215.346C205.29 215.663 204.935 215.908 204.52 216.081C204.104 216.249 203.638 216.333 203.12 216.333C202.597 216.333 202.126 216.249 201.706 216.081C201.29 215.908 200.936 215.663 200.642 215.346C200.348 215.029 200.121 214.646 199.963 214.198C199.809 213.75 199.732 213.246 199.732 212.686C199.732 212.131 199.809 211.629 199.963 211.181C200.121 210.728 200.348 210.343 200.642 210.026C200.936 209.709 201.29 209.464 201.706 209.291C202.126 209.118 202.597 209.032 203.12 209.032ZM203.12 215.36C203.82 215.36 204.342 215.127 204.688 214.66C205.033 214.189 205.206 213.533 205.206 212.693C205.206 211.848 205.033 211.19 204.688 210.719C204.342 210.248 203.82 210.012 203.12 210.012C202.765 210.012 202.455 210.073 202.189 210.194C201.927 210.315 201.708 210.49 201.531 210.719C201.358 210.948 201.227 211.23 201.139 211.566C201.055 211.897 201.013 212.273 201.013 212.693C201.013 213.533 201.185 214.189 201.531 214.66C201.881 215.127 202.41 215.36 203.12 215.36ZM218.992 214.163C219.067 214.163 219.132 214.193 219.188 214.254L219.727 214.835C219.317 215.311 218.817 215.682 218.229 215.948C217.646 216.214 216.939 216.347 216.108 216.347C215.39 216.347 214.736 216.223 214.148 215.976C213.56 215.724 213.059 215.374 212.643 214.926C212.228 214.473 211.906 213.932 211.677 213.302C211.449 212.672 211.334 211.979 211.334 211.223C211.334 210.467 211.453 209.774 211.691 209.144C211.929 208.514 212.263 207.973 212.692 207.52C213.126 207.067 213.644 206.717 214.246 206.47C214.848 206.218 215.513 206.092 216.241 206.092C216.955 206.092 217.585 206.206 218.131 206.435C218.677 206.664 219.158 206.974 219.573 207.366L219.125 207.989C219.097 208.036 219.06 208.075 219.013 208.108C218.971 208.136 218.913 208.15 218.838 208.15C218.754 208.15 218.652 208.106 218.53 208.017C218.409 207.924 218.25 207.821 218.054 207.709C217.858 207.597 217.613 207.497 217.319 207.408C217.025 207.315 216.664 207.268 216.234 207.268C215.716 207.268 215.243 207.359 214.813 207.541C214.384 207.718 214.013 207.977 213.7 208.318C213.392 208.659 213.152 209.074 212.979 209.564C212.807 210.054 212.72 210.607 212.72 211.223C212.72 211.848 212.809 212.406 212.986 212.896C213.168 213.386 213.413 213.801 213.721 214.142C214.034 214.478 214.4 214.735 214.82 214.912C215.245 215.089 215.702 215.178 216.192 215.178C216.491 215.178 216.759 215.162 216.997 215.129C217.24 215.092 217.462 215.036 217.662 214.961C217.868 214.886 218.057 214.793 218.229 214.681C218.407 214.564 218.582 214.427 218.754 214.268C218.834 214.198 218.913 214.163 218.992 214.163ZM224.851 213.043C224.277 213.062 223.787 213.108 223.381 213.183C222.979 213.253 222.65 213.346 222.394 213.463C222.142 213.58 221.957 213.717 221.841 213.876C221.729 214.035 221.673 214.212 221.673 214.408C221.673 214.595 221.703 214.756 221.764 214.891C221.824 215.026 221.906 215.138 222.009 215.227C222.116 215.311 222.24 215.374 222.38 215.416C222.524 215.453 222.678 215.472 222.842 215.472C223.061 215.472 223.262 215.451 223.444 215.409C223.626 215.362 223.796 215.297 223.955 215.213C224.118 215.129 224.272 215.029 224.417 214.912C224.566 214.795 224.711 214.662 224.851 214.513V213.043ZM220.826 210.145C221.218 209.767 221.64 209.485 222.093 209.298C222.545 209.111 223.047 209.018 223.598 209.018C223.994 209.018 224.347 209.083 224.655 209.214C224.963 209.345 225.222 209.527 225.432 209.76C225.642 209.993 225.8 210.276 225.908 210.607C226.015 210.938 226.069 211.302 226.069 211.699V216.235H225.516C225.394 216.235 225.301 216.216 225.236 216.179C225.17 216.137 225.119 216.058 225.082 215.941L224.942 215.269C224.755 215.442 224.573 215.596 224.396 215.731C224.218 215.862 224.032 215.974 223.836 216.067C223.64 216.156 223.43 216.223 223.206 216.27C222.986 216.321 222.741 216.347 222.471 216.347C222.195 216.347 221.936 216.31 221.694 216.235C221.451 216.156 221.239 216.039 221.057 215.885C220.879 215.731 220.737 215.537 220.63 215.304C220.527 215.066 220.476 214.786 220.476 214.464C220.476 214.184 220.553 213.916 220.707 213.659C220.861 213.398 221.11 213.167 221.456 212.966C221.801 212.765 222.251 212.602 222.807 212.476C223.362 212.345 224.043 212.271 224.851 212.252V211.699C224.851 211.148 224.732 210.733 224.494 210.453C224.256 210.168 223.908 210.026 223.451 210.026C223.143 210.026 222.884 210.066 222.674 210.145C222.468 210.22 222.289 210.306 222.135 210.404C221.985 210.497 221.855 210.584 221.743 210.663C221.635 210.738 221.528 210.775 221.421 210.775C221.337 210.775 221.264 210.754 221.204 210.712C221.143 210.665 221.092 210.609 221.05 210.544L220.826 210.145ZM229.15 210.565C229.374 210.08 229.649 209.702 229.976 209.431C230.302 209.156 230.701 209.018 231.173 209.018C231.322 209.018 231.464 209.034 231.6 209.067C231.74 209.1 231.863 209.151 231.971 209.221L231.88 210.152C231.852 210.269 231.782 210.327 231.67 210.327C231.604 210.327 231.509 210.313 231.383 210.285C231.257 210.257 231.114 210.243 230.956 210.243C230.732 210.243 230.531 210.276 230.354 210.341C230.181 210.406 230.025 210.504 229.885 210.635C229.749 210.761 229.626 210.92 229.514 211.111C229.406 211.298 229.308 211.512 229.22 211.755V216.235H227.967V209.144H228.681C228.816 209.144 228.909 209.17 228.961 209.221C229.012 209.272 229.047 209.361 229.066 209.487L229.15 210.565ZM235.243 216.347C234.683 216.347 234.252 216.191 233.948 215.878C233.65 215.565 233.5 215.115 233.5 214.527V210.187H232.646C232.572 210.187 232.509 210.166 232.457 210.124C232.406 210.077 232.38 210.007 232.38 209.914V209.417L233.542 209.27L233.829 207.079C233.843 207.009 233.874 206.953 233.92 206.911C233.972 206.864 234.037 206.841 234.116 206.841H234.746V209.284H236.797V210.187H234.746V214.443C234.746 214.742 234.819 214.963 234.963 215.108C235.108 215.253 235.295 215.325 235.523 215.325C235.654 215.325 235.766 215.309 235.859 215.276C235.957 215.239 236.041 215.199 236.111 215.157C236.181 215.115 236.24 215.078 236.286 215.045C236.338 215.008 236.382 214.989 236.419 214.989C236.485 214.989 236.543 215.029 236.594 215.108L236.958 215.703C236.744 215.904 236.485 216.062 236.181 216.179C235.878 216.291 235.565 216.347 235.243 216.347Z" fill="white"/>
</g>
<defs>
<filter id="filter0_d_190_1319" x="0" y="0" width="368" height="428" filterUnits="userSpaceOnUse" color-interpolation-filters="sRGB">
<feFlood flood-opacity="0" result="BackgroundImageFix"/>
<feColorMatrix in="SourceAlpha" type="matrix" values="0 0 0 0 0 0 0 0 0 0 0 0 0 0 0 0 0 0 127 0" result="hardAlpha"/>
<feOffset dy="4"/>
<feGaussianBlur stdDeviation="2"/>
<feComposite in2="hardAlpha" operator="out"/>
<feColorMatrix type="matrix" values="0 0 0 0 0 0 0 0 0 0 0 0 0 0 0 0 0 0 0.25 0"/>
<feBlend mode="normal" in2="BackgroundImageFix" result="effect1_dropShadow_190_1319"/>
<feBlend mode="normal" in="SourceGraphic" in2="effect1_dropShadow_190_1319" result="shape"/>
</filter>
</defs>
</svg>
