<svg width="284" height="44" viewBox="0 0 284 44" fill="none" xmlns="http://www.w3.org/2000/svg">
<path d="M280.731 0H3.26431C1.46148 0 0 1.34315 0 3V41C0 42.6569 1.46148 44 3.26431 44H280.731C282.534 44 283.995 42.6569 283.995 41V3C283.995 1.34315 282.534 0 280.731 0Z" fill="white"/>
<path d="M280.731 0.5H3.2643C1.76194 0.5 0.544037 1.61929 0.544037 3V41C0.544037 42.3807 1.76194 43.5 3.2643 43.5H280.731C282.233 43.5 283.451 42.3807 283.451 41V3C283.451 1.61929 282.233 0.5 280.731 0.5Z" stroke="#EBEBEB" stroke-linejoin="round"/>
<path d="M48.976 28.408V29H43.136V28.408H45.736V19.224C45.736 19.0427 45.744 18.8507 45.76 18.648L43.264 20.864C43.1893 20.928 43.1147 20.952 43.04 20.936C42.9653 20.92 42.9067 20.888 42.864 20.84L42.632 20.52L45.904 17.632H46.504V28.408H48.976Z" fill="#EF5B70"/>
<path d="M79.952 28.28C80.0373 28.28 80.104 28.3067 80.152 28.36C80.2 28.408 80.224 28.472 80.224 28.552V29H72.92V28.728C72.92 28.6693 72.9333 28.6107 72.96 28.552C72.992 28.488 73.032 28.4347 73.08 28.392L76.944 24.48C77.264 24.1547 77.56 23.84 77.832 23.536C78.104 23.232 78.3387 22.9253 78.536 22.616C78.7387 22.3067 78.896 21.9893 79.008 21.664C79.12 21.3387 79.176 20.992 79.176 20.624C79.176 20.208 79.1067 19.848 78.968 19.544C78.8293 19.2347 78.6453 18.9813 78.416 18.784C78.1867 18.5867 77.92 18.44 77.616 18.344C77.312 18.248 76.9973 18.2 76.672 18.2C76.3147 18.2 75.984 18.256 75.68 18.368C75.3813 18.4747 75.1147 18.6267 74.88 18.824C74.6507 19.016 74.4587 19.248 74.304 19.52C74.1547 19.7867 74.0507 20.08 73.992 20.4C73.9547 20.5173 73.904 20.5947 73.84 20.632C73.7813 20.6693 73.6987 20.6827 73.592 20.672L73.2 20.608C73.2693 20.1227 73.4027 19.6907 73.6 19.312C73.7973 18.9333 74.048 18.6133 74.352 18.352C74.656 18.0907 75.008 17.8933 75.408 17.76C75.808 17.6213 76.24 17.552 76.704 17.552C77.136 17.552 77.5467 17.616 77.936 17.744C78.3307 17.8667 78.6773 18.056 78.976 18.312C79.28 18.5627 79.52 18.88 79.696 19.264C79.872 19.6427 79.96 20.088 79.96 20.6C79.96 21.0267 79.8933 21.424 79.76 21.792C79.632 22.1547 79.456 22.504 79.232 22.84C79.008 23.176 78.7467 23.504 78.448 23.824C78.1547 24.1387 77.8453 24.4613 77.52 24.792L73.976 28.408C74.1467 28.3653 74.3227 28.3333 74.504 28.312C74.6907 28.2907 74.8773 28.28 75.064 28.28H79.952ZM104.248 20.608C104.317 20.1227 104.451 19.6907 104.648 19.312C104.845 18.9333 105.096 18.6133 105.4 18.352C105.704 18.0907 106.056 17.8933 106.456 17.76C106.856 17.6213 107.288 17.552 107.752 17.552C108.184 17.552 108.592 17.6133 108.976 17.736C109.36 17.8533 109.696 18.032 109.984 18.272C110.277 18.512 110.507 18.8107 110.672 19.168C110.843 19.5253 110.928 19.9387 110.928 20.408C110.928 20.776 110.872 21.1093 110.76 21.408C110.648 21.7013 110.491 21.96 110.288 22.184C110.091 22.408 109.856 22.5973 109.584 22.752C109.312 22.9013 109.016 23.016 108.696 23.096C109.528 23.2507 110.155 23.5733 110.576 24.064C111.003 24.5493 111.216 25.1573 111.216 25.888C111.216 26.352 111.123 26.784 110.936 27.184C110.749 27.5787 110.493 27.92 110.168 28.208C109.843 28.496 109.459 28.7227 109.016 28.888C108.573 29.048 108.093 29.128 107.576 29.128C106.931 29.128 106.392 29.0427 105.96 28.872C105.533 28.696 105.181 28.4693 104.904 28.192C104.627 27.9147 104.411 27.6053 104.256 27.264C104.101 26.9173 103.976 26.5733 103.88 26.232L104.184 26.104C104.269 26.0667 104.357 26.056 104.448 26.072C104.544 26.088 104.613 26.1493 104.656 26.256C104.683 26.32 104.717 26.4213 104.76 26.56C104.808 26.6933 104.875 26.8427 104.96 27.008C105.045 27.1733 105.155 27.344 105.288 27.52C105.427 27.6907 105.597 27.848 105.8 27.992C106.008 28.136 106.256 28.2533 106.544 28.344C106.832 28.4347 107.173 28.48 107.568 28.48C108.048 28.48 108.467 28.4 108.824 28.24C109.187 28.08 109.488 27.8773 109.728 27.632C109.973 27.3813 110.155 27.104 110.272 26.8C110.395 26.4907 110.456 26.192 110.456 25.904C110.456 25.5573 110.4 25.2347 110.288 24.936C110.181 24.6373 110 24.3813 109.744 24.168C109.488 23.9493 109.149 23.7787 108.728 23.656C108.312 23.528 107.797 23.464 107.184 23.464V22.912C107.675 22.9013 108.107 22.8373 108.48 22.72C108.853 22.5973 109.165 22.432 109.416 22.224C109.667 22.016 109.856 21.768 109.984 21.48C110.112 21.192 110.176 20.8747 110.176 20.528C110.176 20.128 110.109 19.7813 109.976 19.488C109.843 19.1947 109.664 18.952 109.44 18.76C109.216 18.568 108.955 18.4267 108.656 18.336C108.357 18.2453 108.045 18.2 107.72 18.2C107.363 18.2 107.032 18.256 106.728 18.368C106.424 18.4747 106.155 18.6267 105.92 18.824C105.691 19.016 105.499 19.248 105.344 19.52C105.189 19.7867 105.083 20.08 105.024 20.4C104.992 20.5173 104.947 20.5947 104.888 20.632C104.829 20.6693 104.747 20.6827 104.64 20.672L104.248 20.608ZM140.024 25.144V19.216C140.024 19.1253 140.027 19.0267 140.032 18.92C140.043 18.8133 140.053 18.704 140.064 18.592L135.168 25.144H140.024ZM142.768 25.144V25.56C142.768 25.6187 142.749 25.6667 142.712 25.704C142.68 25.736 142.627 25.752 142.552 25.752H140.696V29H140.024V25.752H134.672C134.592 25.752 134.531 25.736 134.488 25.704C134.445 25.6667 134.416 25.6187 134.4 25.56L134.328 25.184L140.016 17.664H140.696V25.144H142.768ZM167.48 22.16C167.837 22.0693 168.173 22.0053 168.488 21.968C168.808 21.9253 169.112 21.904 169.4 21.904C169.992 21.904 170.512 21.9893 170.96 22.16C171.408 22.3253 171.781 22.56 172.08 22.864C172.384 23.1627 172.611 23.52 172.76 23.936C172.915 24.352 172.992 24.8053 172.992 25.296C172.992 25.8933 172.888 26.4293 172.68 26.904C172.477 27.3733 172.197 27.7733 171.84 28.104C171.483 28.4347 171.067 28.688 170.592 28.864C170.117 29.04 169.613 29.128 169.08 29.128C168.771 29.128 168.472 29.0987 168.184 29.04C167.901 28.9867 167.635 28.9147 167.384 28.824C167.139 28.728 166.909 28.6187 166.696 28.496C166.488 28.3733 166.304 28.248 166.144 28.12L166.376 27.808C166.424 27.728 166.499 27.688 166.6 27.688C166.669 27.688 166.768 27.728 166.896 27.808C167.029 27.888 167.197 27.976 167.4 28.072C167.608 28.168 167.853 28.256 168.136 28.336C168.419 28.416 168.747 28.456 169.12 28.456C169.557 28.456 169.965 28.3867 170.344 28.248C170.723 28.104 171.051 27.8987 171.328 27.632C171.605 27.3653 171.821 27.0373 171.976 26.648C172.136 26.2533 172.216 25.808 172.216 25.312C172.216 24.9067 172.155 24.5333 172.032 24.192C171.915 23.8507 171.733 23.56 171.488 23.32C171.248 23.0747 170.941 22.8853 170.568 22.752C170.2 22.6133 169.765 22.544 169.264 22.544C168.96 22.544 168.637 22.568 168.296 22.616C167.955 22.664 167.592 22.7413 167.208 22.848L166.72 22.696L167.6 17.68H172.696V18.008C172.696 18.1147 172.659 18.2053 172.584 18.28C172.515 18.3493 172.403 18.384 172.248 18.384H168.152L167.48 22.16ZM200.632 28.496C201.091 28.496 201.504 28.424 201.872 28.28C202.24 28.136 202.552 27.9387 202.808 27.688C203.069 27.432 203.269 27.1307 203.408 26.784C203.547 26.432 203.616 26.0507 203.616 25.64C203.616 25.208 203.547 24.8187 203.408 24.472C203.275 24.12 203.083 23.824 202.832 23.584C202.587 23.3387 202.293 23.152 201.952 23.024C201.611 22.8907 201.232 22.824 200.816 22.824C200.347 22.824 199.925 22.9067 199.552 23.072C199.184 23.232 198.872 23.4427 198.616 23.704C198.36 23.96 198.165 24.2533 198.032 24.584C197.899 24.9147 197.832 25.248 197.832 25.584C197.832 26.0053 197.896 26.3947 198.024 26.752C198.157 27.1093 198.344 27.4187 198.584 27.68C198.824 27.936 199.117 28.136 199.464 28.28C199.811 28.424 200.2 28.496 200.632 28.496ZM199.32 22.088C199.155 22.3067 199.003 22.512 198.864 22.704C198.725 22.896 198.6 23.0853 198.488 23.272C198.803 22.9467 199.176 22.6933 199.608 22.512C200.04 22.3253 200.512 22.232 201.024 22.232C201.509 22.232 201.957 22.312 202.368 22.472C202.779 22.632 203.131 22.8587 203.424 23.152C203.723 23.44 203.955 23.792 204.12 24.208C204.291 24.6187 204.376 25.08 204.376 25.592C204.376 26.104 204.283 26.576 204.096 27.008C203.915 27.44 203.659 27.8133 203.328 28.128C203.003 28.4427 202.611 28.688 202.152 28.864C201.693 29.04 201.189 29.128 200.64 29.128C200.112 29.128 199.629 29.0427 199.192 28.872C198.755 28.7013 198.379 28.456 198.064 28.136C197.755 27.816 197.515 27.4267 197.344 26.968C197.173 26.504 197.088 25.9813 197.088 25.4C197.088 24.9573 197.2 24.4587 197.424 23.904C197.648 23.344 198.016 22.7173 198.528 22.024L201.616 17.864C201.707 17.7413 201.843 17.68 202.024 17.68H202.696L199.32 22.088ZM206.409 28.384C206.409 28.2827 206.428 28.1867 206.465 28.096C206.503 28.0053 206.553 27.928 206.617 27.864C206.687 27.7947 206.764 27.7413 206.849 27.704C206.94 27.6613 207.039 27.64 207.145 27.64C207.247 27.64 207.343 27.6613 207.433 27.704C207.524 27.7413 207.601 27.7947 207.665 27.864C207.735 27.928 207.788 28.0053 207.825 28.096C207.868 28.1867 207.889 28.2827 207.889 28.384C207.889 28.4907 207.868 28.5893 207.825 28.68C207.788 28.7653 207.735 28.8427 207.665 28.912C207.601 28.976 207.524 29.0267 207.433 29.064C207.343 29.1013 207.247 29.12 207.145 29.12C206.937 29.12 206.761 29.0507 206.617 28.912C206.479 28.768 206.409 28.592 206.409 28.384ZM210.144 28.384C210.144 28.2827 210.162 28.1867 210.2 28.096C210.237 28.0053 210.288 27.928 210.352 27.864C210.421 27.7947 210.498 27.7413 210.584 27.704C210.674 27.6613 210.773 27.64 210.88 27.64C210.981 27.64 211.077 27.6613 211.168 27.704C211.258 27.7413 211.336 27.7947 211.4 27.864C211.469 27.928 211.522 28.0053 211.56 28.096C211.602 28.1867 211.624 28.2827 211.624 28.384C211.624 28.4907 211.602 28.5893 211.56 28.68C211.522 28.7653 211.469 28.8427 211.4 28.912C211.336 28.976 211.258 29.0267 211.168 29.064C211.077 29.1013 210.981 29.12 210.88 29.12C210.672 29.12 210.496 29.0507 210.352 28.912C210.213 28.768 210.144 28.592 210.144 28.384ZM213.878 28.384C213.878 28.2827 213.897 28.1867 213.934 28.096C213.971 28.0053 214.022 27.928 214.086 27.864C214.155 27.7947 214.233 27.7413 214.318 27.704C214.409 27.6613 214.507 27.64 214.614 27.64C214.715 27.64 214.811 27.6613 214.902 27.704C214.993 27.7413 215.07 27.7947 215.134 27.864C215.203 27.928 215.257 28.0053 215.294 28.096C215.337 28.1867 215.358 28.2827 215.358 28.384C215.358 28.4907 215.337 28.5893 215.294 28.68C215.257 28.7653 215.203 28.8427 215.134 28.912C215.07 28.976 214.993 29.0267 214.902 29.064C214.811 29.1013 214.715 29.12 214.614 29.12C214.406 29.12 214.23 29.0507 214.086 28.912C213.947 28.768 213.878 28.592 213.878 28.384ZM217.612 28.384C217.612 28.2827 217.631 28.1867 217.668 28.096C217.706 28.0053 217.756 27.928 217.82 27.864C217.89 27.7947 217.967 27.7413 218.052 27.704C218.143 27.6613 218.242 27.64 218.348 27.64C218.45 27.64 218.546 27.6613 218.636 27.704C218.727 27.7413 218.804 27.7947 218.868 27.864C218.938 27.928 218.991 28.0053 219.028 28.096C219.071 28.1867 219.092 28.2827 219.092 28.384C219.092 28.4907 219.071 28.5893 219.028 28.68C218.991 28.7653 218.938 28.8427 218.868 28.912C218.804 28.976 218.727 29.0267 218.636 29.064C218.546 29.1013 218.45 29.12 218.348 29.12C218.14 29.12 217.964 29.0507 217.82 28.912C217.682 28.768 217.612 28.592 217.612 28.384ZM221.347 28.384C221.347 28.2827 221.365 28.1867 221.403 28.096C221.44 28.0053 221.491 27.928 221.555 27.864C221.624 27.7947 221.701 27.7413 221.787 27.704C221.877 27.6613 221.976 27.64 222.083 27.64C222.184 27.64 222.28 27.6613 222.371 27.704C222.461 27.7413 222.539 27.7947 222.603 27.864C222.672 27.928 222.725 28.0053 222.763 28.096C222.805 28.1867 222.827 28.2827 222.827 28.384C222.827 28.4907 222.805 28.5893 222.763 28.68C222.725 28.7653 222.672 28.8427 222.603 28.912C222.539 28.976 222.461 29.0267 222.371 29.064C222.28 29.1013 222.184 29.12 222.083 29.12C221.875 29.12 221.699 29.0507 221.555 28.912C221.416 28.768 221.347 28.592 221.347 28.384ZM231.905 28.28C231.99 28.28 232.057 28.3067 232.105 28.36C232.153 28.408 232.177 28.472 232.177 28.552V29H224.873V28.728C224.873 28.6693 224.886 28.6107 224.913 28.552C224.945 28.488 224.985 28.4347 225.033 28.392L228.897 24.48C229.217 24.1547 229.513 23.84 229.785 23.536C230.057 23.232 230.292 22.9253 230.489 22.616C230.692 22.3067 230.849 21.9893 230.961 21.664C231.073 21.3387 231.129 20.992 231.129 20.624C231.129 20.208 231.06 19.848 230.921 19.544C230.782 19.2347 230.598 18.9813 230.369 18.784C230.14 18.5867 229.873 18.44 229.569 18.344C229.265 18.248 228.95 18.2 228.625 18.2C228.268 18.2 227.937 18.256 227.633 18.368C227.334 18.4747 227.068 18.6267 226.833 18.824C226.604 19.016 226.412 19.248 226.257 19.52C226.108 19.7867 226.004 20.08 225.945 20.4C225.908 20.5173 225.857 20.5947 225.793 20.632C225.734 20.6693 225.652 20.6827 225.545 20.672L225.153 20.608C225.222 20.1227 225.356 19.6907 225.553 19.312C225.75 18.9333 226.001 18.6133 226.305 18.352C226.609 18.0907 226.961 17.8933 227.361 17.76C227.761 17.6213 228.193 17.552 228.657 17.552C229.089 17.552 229.5 17.616 229.889 17.744C230.284 17.8667 230.63 18.056 230.929 18.312C231.233 18.5627 231.473 18.88 231.649 19.264C231.825 19.6427 231.913 20.088 231.913 20.6C231.913 21.0267 231.846 21.424 231.713 21.792C231.585 22.1547 231.409 22.504 231.185 22.84C230.961 23.176 230.7 23.504 230.401 23.824C230.108 24.1387 229.798 24.4613 229.473 24.792L225.929 28.408C226.1 28.3653 226.276 28.3333 226.457 28.312C226.644 28.2907 226.83 28.28 227.017 28.28H231.905ZM241.93 23.336C241.93 24.328 241.824 25.1867 241.61 25.912C241.397 26.6373 241.106 27.2373 240.738 27.712C240.37 28.1867 239.938 28.5413 239.442 28.776C238.952 29.0053 238.426 29.12 237.866 29.12C237.306 29.12 236.781 29.0053 236.29 28.776C235.8 28.5413 235.37 28.1867 235.002 27.712C234.634 27.2373 234.344 26.6373 234.13 25.912C233.922 25.1867 233.818 24.328 233.818 23.336C233.818 22.344 233.922 21.4853 234.13 20.76C234.344 20.0347 234.634 19.4347 235.002 18.96C235.37 18.4853 235.8 18.1333 236.29 17.904C236.781 17.6693 237.306 17.552 237.866 17.552C238.426 17.552 238.952 17.6693 239.442 17.904C239.938 18.1333 240.37 18.4853 240.738 18.96C241.106 19.4347 241.397 20.0347 241.61 20.76C241.824 21.4853 241.93 22.344 241.93 23.336ZM241.13 23.336C241.13 22.4187 241.042 21.6347 240.866 20.984C240.69 20.3333 240.453 19.8027 240.154 19.392C239.861 18.976 239.514 18.672 239.114 18.48C238.72 18.288 238.304 18.192 237.866 18.192C237.429 18.192 237.013 18.288 236.618 18.48C236.224 18.672 235.877 18.976 235.578 19.392C235.28 19.8027 235.042 20.3333 234.866 20.984C234.69 21.6347 234.602 22.4187 234.602 23.336C234.602 24.2587 234.69 25.0453 234.866 25.696C235.042 26.3413 235.28 26.872 235.578 27.288C235.877 27.6987 236.224 28 236.618 28.192C237.013 28.3787 237.429 28.472 237.866 28.472C238.304 28.472 238.72 28.3787 239.114 28.192C239.514 28 239.861 27.6987 240.154 27.288C240.453 26.872 240.69 26.3413 240.866 25.696C241.042 25.0453 241.13 24.2587 241.13 23.336Z" fill="#C4C4C4"/>
<path d="M23.995 17L18.995 22L23.995 27L22.995 29L15.995 22L22.995 15L23.995 17Z" fill="black"/>
<path d="M259.995 27L264.995 22L259.995 17L260.995 15L267.995 22L260.995 29L259.995 27Z" fill="black"/>
</svg>
